<?xml version="1.0" standalone="no"?>
<!DOCTYPE svg PUBLIC "-//W3C//DTD SVG 20010904//EN"
 "http://www.w3.org/TR/2001/REC-SVG-20010904/DTD/svg10.dtd">
<svg version="1.0" xmlns="http://www.w3.org/2000/svg"
 width="78.000000pt" height="48.000000pt" viewBox="0 0 78.000000 48.000000"
 preserveAspectRatio="xMidYMid meet">

<g transform="translate(0.000000,48.000000) scale(0.100000,-0.100000)"
fill="#000000" stroke="none">
<path d="M374 392 c-15 -9 -6 -72 10 -72 7 0 10 14 8 40 -2 22 -5 40 -6 40 0
0 -6 -4 -12 -8z"/>
<path d="M238 357 c-19 -15 -32 -41 -43 -82 -23 -90 -20 -122 14 -156 l29 -29
140 0 139 0 59 39 c32 21 72 53 89 70 25 27 27 34 15 42 -8 5 -30 19 -47 30
-18 11 -33 27 -33 35 0 8 -4 14 -10 14 -5 0 -10 -4 -10 -10 0 -5 -8 -6 -17 -3
-16 6 -16 5 -4 -10 22 -28 9 -113 -22 -145 -25 -24 -35 -27 -127 -30 -184 -8
-212 11 -191 127 7 37 21 82 31 99 23 38 23 38 -12 9z"/>
</g>
</svg>
