<?xml version="1.0" standalone="no"?>
<!DOCTYPE svg PUBLIC "-//W3C//DTD SVG 20010904//EN"
 "http://www.w3.org/TR/2001/REC-SVG-20010904/DTD/svg10.dtd">
<svg version="1.0" xmlns="http://www.w3.org/2000/svg"
 width="48.000000pt" height="48.000000pt" viewBox="0 0 48.000000 48.000000"
 preserveAspectRatio="xMidYMid meet">

<g transform="translate(0.000000,48.000000) scale(0.100000,-0.100000)"
fill="#000000" stroke="none">
<path d="M203 373 c-15 -44 -25 -59 -41 -61 -30 -5 -43 -25 -45 -74 -2 -38 1
-43 21 -46 20 -3 22 -9 22 -58 0 -53 -1 -55 -22 -49 -13 4 -34 15 -48 25 -23
16 -25 23 -24 101 0 62 6 96 22 131 20 45 20 47 1 35 -28 -18 -50 -83 -56
-169 -5 -63 -3 -82 11 -103 21 -33 77 -57 120 -53 l31 3 -3 75 c-2 41 -9 80
-14 85 -8 7 -9 6 -4 -2 5 -9 0 -13 -16 -13 -17 0 -19 3 -9 9 10 7 11 9 1 13
-9 3 -11 13 -6 31 5 20 13 27 31 27 27 0 31 7 59 98 12 43 13 52 1 52 -7 0
-22 -25 -32 -57z"/>
</g>
</svg>
