<?xml version="1.0" standalone="no"?>
<!DOCTYPE svg PUBLIC "-//W3C//DTD SVG 20010904//EN"
 "http://www.w3.org/TR/2001/REC-SVG-20010904/DTD/svg10.dtd">
<svg version="1.0" xmlns="http://www.w3.org/2000/svg"
 width="48.000000pt" height="47.000000pt" viewBox="0 0 48.000000 47.000000"
 preserveAspectRatio="xMidYMid meet">

<g transform="translate(0.000000,47.000000) scale(0.100000,-0.100000)"
fill="#000000" stroke="none">
<path d="M298 393 c7 -3 16 -2 19 1 4 3 -2 6 -13 5 -11 0 -14 -3 -6 -6z"/>
<path d="M146 339 c-18 -14 -37 -20 -56 -17 -21 3 -30 0 -30 -9 0 -7 9 -13 21
-13 16 0 20 -5 17 -27 -3 -25 -7 -28 -36 -26 -37 1 -40 -20 -3 -25 30 -5 25
-44 -7 -52 -29 -6 -30 -24 -2 -28 12 -2 26 -17 35 -38 16 -39 46 -54 112 -54
62 0 108 24 128 67 51 107 60 239 16 239 -16 0 -18 -4 -9 -19 21 -40 -25 -204
-65 -232 -29 -20 -121 -20 -141 1 -9 8 -16 30 -16 48 0 48 28 148 51 179 24
33 20 34 -15 6z"/>
</g>
</svg>
