<?xml version="1.0" standalone="no"?>
<!DOCTYPE svg PUBLIC "-//W3C//DTD SVG 20010904//EN"
 "http://www.w3.org/TR/2001/REC-SVG-20010904/DTD/svg10.dtd">
<svg version="1.0" xmlns="http://www.w3.org/2000/svg"
 width="48.000000pt" height="47.000000pt" viewBox="0 0 48.000000 47.000000"
 preserveAspectRatio="xMidYMid meet">

<g transform="translate(0.000000,47.000000) scale(0.100000,-0.100000)"
fill="#000000" stroke="none">
<path d="M113 351 c-33 -21 -64 -45 -69 -53 -4 -7 8 -1 28 15 20 15 39 27 43
27 3 0 23 11 43 25 60 41 20 28 -45 -14z"/>
<path d="M143 333 c-39 -26 -73 -76 -73 -108 0 -21 -37 -19 -50 3 -8 11 -10
12 -7 2 2 -8 14 -20 26 -26 13 -7 31 -29 41 -50 29 -64 62 -87 130 -92 50 -4
69 0 116 23 56 28 134 95 134 116 0 6 -12 -3 -26 -20 -14 -18 -34 -36 -44 -41
-16 -9 -16 -7 1 27 11 21 19 48 19 60 0 23 17 30 36 16 5 -5 0 1 -12 12 -12
11 -24 32 -28 47 -3 16 -18 33 -36 42 l-30 15 20 -26 c13 -17 20 -41 20 -70 0
-161 -222 -233 -270 -87 -16 48 3 110 47 151 42 40 40 41 -14 6z"/>
<path d="M230 230 c0 -5 -21 -10 -47 -12 -40 -3 -48 -6 -48 -23 0 -16 8 -21
38 -23 20 -2 35 -7 32 -13 -4 -5 -1 -9 5 -9 13 0 114 50 108 54 -15 12 -88 34
-88 26z"/>
</g>
</svg>
