<?xml version="1.0" standalone="no"?>
<!DOCTYPE svg PUBLIC "-//W3C//DTD SVG 20010904//EN"
 "http://www.w3.org/TR/2001/REC-SVG-20010904/DTD/svg10.dtd">
<svg version="1.0" xmlns="http://www.w3.org/2000/svg"
 width="48.000000pt" height="47.000000pt" viewBox="0 0 48.000000 47.000000"
 preserveAspectRatio="xMidYMid meet">

<g transform="translate(0.000000,47.000000) scale(0.100000,-0.100000)"
fill="#000000" stroke="none">
<path d="M430 326 c11 -30 13 -108 4 -143 -3 -12 -16 -25 -28 -29 -11 -3 -31
-15 -43 -26 -13 -13 -28 -18 -41 -14 -20 7 -52 -1 -52 -13 0 -4 17 -5 38 -3
32 3 58 12 122 42 23 11 27 182 5 200 -14 12 -14 10 -5 -14z"/>
<path d="M179 310 l-24 -21 34 16 c39 19 75 13 109 -17 12 -12 22 -17 22 -10
0 20 -52 52 -85 52 -19 0 -43 -9 -56 -20z"/>
<path d="M22 244 c-2 -67 1 -84 16 -97 10 -10 26 -17 34 -17 9 0 21 -7 28 -15
7 -8 29 -15 49 -15 20 0 42 -5 49 -12 9 -9 12 -9 12 0 0 17 -38 34 -60 27 -11
-4 -31 2 -47 12 -15 10 -37 24 -48 29 -17 9 -21 25 -26 90 l-5 79 -2 -81z"/>
<path d="M87 186 c10 -13 19 -23 21 -21 7 6 -19 45 -29 45 -5 0 -2 -11 8 -24z"/>
<path d="M366 194 c-11 -29 -6 -34 14 -14 24 24 25 30 6 30 -8 0 -17 -7 -20
-16z"/>
<path d="M235 70 l-30 -8 27 -1 c15 0 30 4 33 9 3 6 5 9 3 9 -2 -1 -16 -5 -33
-9z"/>
</g>
</svg>
